<svg width="240" height="240" viewBox="0 0 240 240" fill="none" xmlns="http://www.w3.org/2000/svg">
  <circle cx="120" cy="120" r="98" stroke="#F5A623" stroke-width="2" stroke-dasharray="6 10" opacity="0.5"/>
  <path
    d="M78 56C78 50.4772 82.4772 46 88 46H152C157.523 46 162 50.4772 162 56V190C162 194.24 157.156 196.65 153.76 194.12L124.4 172.09C121.94 170.25 118.06 170.25 115.6 172.09L86.24 194.12C82.8443 196.65 78 194.24 78 190V56Z"
    fill="#F5A623"
    fill-opacity="0.12"
    stroke="#F5A623"
    stroke-width="4"
    stroke-linejoin="round"
  />
  <circle cx="60" cy="70" r="4" fill="#F5A623" opacity="0.7"/>
  <circle cx="182" cy="150" r="3" fill="#F5A623" opacity="0.5"/>
  <circle cx="176" cy="66" r="3" fill="#F5A623" opacity="0.6"/>
  <line x1="120" y1="96" x2="120" y2="128" stroke="#F5A623" stroke-width="5" stroke-linecap="round"/>
  <line x1="104" y1="112" x2="136" y2="112" stroke="#F5A623" stroke-width="5" stroke-linecap="round"/>
</svg>
